HIERARCHY
ROOT Hips
{
	OFFSET -3.958830 18.904000 13.208200
	CHANNELS 6 Xposition Yposition Zposition Zrotation Yrotation Xrotation 
	JOINT LHipJoint
	{
		OFFSET 0.000000 0.000000 0.000000
		CHANNELS 3 Zrotation Yrotation Xrotation
		JOINT LeftUpLeg
		{
			OFFSET 1.800000 -1.400000 0.085000
			CHANNELS 3 Zrotation Yrotation Xrotation
			JOINT LeftLeg
			{
				OFFSET 2.215000 -6.000000 0.000000
				CHANNELS 3 Zrotation Yrotation Xrotation
				JOINT LeftFoot
				{
					OFFSET 2.500000 -6.900000 0.000000
					CHANNELS 3 Zrotation Yrotation Xrotation
					JOINT LeftToeBase
					{
						OFFSET 0.200000 -0.500000 1.950000
						CHANNELS 3 Zrotation Yrotation Xrotation
						End Site
						{
							OFFSET 0.000000 0.000000 0.000000
						}
					}
				}
			}
		}
	}
	JOINT RHipJoint
	{
		OFFSET 0.000000 0.000000 0.000000
		CHANNELS 3 Zrotation Yrotation Xrotation
		JOINT RightUpLeg
		{
			OFFSET -1.800000 -1.400000 0.085000
			CHANNELS 3 Zrotation Yrotation Xrotation
			JOINT RightLeg
			{
				OFFSET -2.215000 -6.000000 0.000000
				CHANNELS 3 Zrotation Yrotation Xrotation
				JOINT RightFoot
				{
					OFFSET -2.500000 -6.900000 0.000000
					CHANNELS 3 Zrotation Yrotation Xrotation
					JOINT RightToeBase
					{
						OFFSET -0.200000 -0.500000 1.950000
						CHANNELS 3 Zrotation Yrotation Xrotation
						End Site
						{
							OFFSET 0.000000 0.000000 0.000000
						}
					}
				}
			}
		}
	}
	JOINT LowerBack
	{
		OFFSET 0.000000 0.000000 0.000000
		CHANNELS 3 Zrotation Yrotation Xrotation
		JOINT Spine
		{
			OFFSET -0.087000 1.940000 -0.288900
			CHANNELS 3 Zrotation Yrotation Xrotation
			JOINT Spine1
			{
				OFFSET 0.000000 1.950000 0.060000
				CHANNELS 3 Zrotation Yrotation Xrotation
				JOINT Neck
				{
					OFFSET 0.000000 0.000000 0.000000
					CHANNELS 3 Zrotation Yrotation Xrotation
					JOINT Neck1
					{
						OFFSET 0.000000 1.600000 0.340000
						CHANNELS 3 Zrotation Yrotation Xrotation
						JOINT Head
						{
							OFFSET 0.000000 1.667000 -0.240000
							CHANNELS 3 Zrotation Yrotation Xrotation
							End Site
							{
								OFFSET 0.000000 0.000000 0.000000
							}
						}
					}
				}
				JOINT LeftShoulder
				{
					OFFSET 0.000000 0.000000 0.000000
					CHANNELS 3 Zrotation Yrotation Xrotation
					JOINT LeftArm
					{
						OFFSET 2.700000 1.550000 -0.730000
						CHANNELS 3 Zrotation Yrotation Xrotation
						JOINT LeftForeArm
						{
							OFFSET 5.450000 0.000000 0.000000
							CHANNELS 3 Zrotation Yrotation Xrotation
							JOINT LeftHand
							{
								OFFSET 3.450000 0.000000 0.000000
								CHANNELS 3 Zrotation Yrotation Xrotation
								JOINT LeftHandIndex1
								{
									OFFSET 0.750000 0.000000 0.000000
									CHANNELS 3 Zrotation Yrotation Xrotation
									End Site
									{
										OFFSET 0.000000 0.000000 0.000000
									}
								}
							}
						}
					}
				}
				JOINT RightShoulder
				{
					OFFSET 0.000000 0.000000 0.000000
					CHANNELS 3 Zrotation Yrotation Xrotation
					JOINT RightArm
					{
						OFFSET -2.700000 1.550000 -0.730000
						CHANNELS 3 Zrotation Yrotation Xrotation
						JOINT RightForeArm
						{
							OFFSET -5.450000 0.000000 0.000000
							CHANNELS 3 Zrotation Yrotation Xrotation
							JOINT RightHand
							{
								OFFSET -3.450000 0.000000 0.000000
								CHANNELS 3 Zrotation Yrotation Xrotation
								JOINT RightHandIndex1
								{
									OFFSET -0.750000 0.000000 0.000000
									CHANNELS 3 Zrotation Yrotation Xrotation
									End Site
									{
										OFFSET 0.000000 0.000000 0.000000
									}
								}
							}
						}
					}
				}
			}
		}
	}
}
MOTION
Frames: 5
Frame Time: 0.016667
5.348620 17.511910 -13.827240 24.242697 -64.654536 -79.447926 -14.763347 15.392490 2.459261 8.633589 -0.265999 1.688510 29.248465 -2.779289 24.667701 3.939347 0.523737 3.943544 7.355880 6.164030 6.500020 18.113001 -11.743193 3.238776 -1.581540 -2.074357 15.341003 -1.874258 -10.939158 56.907359 -4.477514 -5.722551 4.686291 2.716800 -7.309730 -1.797350 -3.614404 -3.687246 -7.122949 -3.241162 8.321472 67.051456 13.425040 10.373885 57.958725 -5.854247 -3.944719 -33.495854 -0.566384 -2.114191 80.485463 -28.253100 11.823990 -85.654060 46.062459 -19.507253 55.026250 60.016811 -24.555618 -170.135022 3.826462 -33.634878 -3.796156 -2.565354 5.749929 -1.029640 -2.531770 1.141900 -0.754500 -30.583481 30.348676 25.661918 31.071597 19.602297 -7.206918 -21.355879 -27.041731 0.518825 2.578207 -4.125825 4.772520 -1.841170 -3.502990 -3.821530 
5.325050 17.510720 -13.643580 29.527082 -66.636108 -84.057480 -14.765563 15.080732 2.773202 6.818268 -2.185677 0.392193 39.352744 -5.588833 21.676393 4.216592 1.226794 3.888793 7.199160 6.085890 6.249030 18.119455 -11.948185 3.046306 -3.679530 -2.375046 14.921980 -2.613241 -10.746965 57.835939 -4.392803 -5.962453 4.732763 2.710570 -7.042350 -1.832610 -3.892853 -2.553950 -6.986712 -3.832791 6.639834 66.450219 13.490350 13.142490 60.123265 -6.863194 -0.934401 -29.746537 5.118661 -3.697262 67.679345 -29.005480 12.913290 -81.285170 45.648302 -20.372368 46.175128 57.510019 -20.589332 -165.905897 9.154849 -38.150914 -5.251108 -4.554599 6.432434 -1.231070 -2.350020 0.934310 -0.628780 -32.503918 28.527213 26.185707 30.861807 8.940613 -0.268849 -23.633018 -27.729653 -1.222630 4.636203 -4.607535 4.691410 -1.768480 -3.447320 -3.741790 
5.360360 17.485810 -13.509130 30.590881 -68.897417 -84.918167 -14.819063 14.910685 2.958564 9.071457 -7.011277 -8.446369 43.569655 -10.561909 31.184657 4.600348 2.817453 3.519933 7.156180 6.129940 6.086080 18.044319 -12.020643 2.956568 -4.015691 -3.903804 14.226700 -3.303182 -10.605746 57.775319 -4.357943 -6.061525 4.754280 2.725550 -6.824590 -1.789990 -3.786139 -2.217146 -6.972749 1.505987 7.667118 69.733190 24.791362 15.113239 55.792521 -8.852858 -2.652734 -22.453482 8.304389 -4.740028 56.757342 -28.981930 14.331350 -76.129690 52.334120 -19.575018 48.787464 62.941746 -10.373276 -169.250381 24.677372 -45.848103 -9.120734 -18.519238 9.390985 -1.455400 -2.188950 0.805690 -0.507390 -28.655568 22.775084 19.289275 26.462061 -9.690461 -1.653970 -35.213117 -27.916524 -3.070103 3.109965 -5.753044 4.730100 -1.757540 -3.438530 -3.612630 
5.359810 17.498640 -13.311910 41.737853 -73.960923 -95.840993 -14.315322 14.632164 3.257689 16.046616 -9.993068 -15.725975 41.624411 -13.765965 44.059577 4.817533 4.723591 2.980095 7.094690 6.151360 5.911430 18.489592 -12.266694 3.036466 -3.274680 -5.146561 14.213140 -6.863721 -8.380853 58.411197 -4.293327 -6.068600 4.900175 2.802160 -6.647400 -1.885490 -4.627377 2.424512 -6.806723 -13.696628 -3.737830 71.490509 -1.002764 12.056745 46.212957 -5.668931 -3.954669 -17.367198 -12.405180 4.407526 44.170452 -28.914550 16.001360 -70.594180 37.912818 -45.230666 -11.474326 7.643862 -13.323258 -61.466251 37.435577 -48.933453 -15.246966 -16.200583 9.954515 -1.629740 -2.032200 0.611420 -0.439640 -38.537854 42.694713 13.357171 14.036969 -5.305857 -2.203500 -26.985694 -31.728498 -1.671007 1.198646 -5.757831 4.675750 -1.646360 -3.335820 -3.616310 
5.386960 17.595870 -13.124660 66.170535 -77.120680 -120.561602 -13.638753 13.890921 3.114379 22.112977 -10.902035 -19.675238 36.292099 -13.417019 52.901759 5.184783 5.299245 2.897151 7.029410 6.258950 5.656790 19.325961 -12.670756 2.697601 -4.550979 -6.131957 15.997807 -9.672644 -5.761216 55.640083 -4.226647 -5.776282 5.073244 2.772150 -6.527280 -1.918140 -5.053105 5.144384 -7.137966 -14.269832 -5.909162 77.149834 -6.674729 12.320271 36.595792 -5.236722 -5.978043 -12.642555 -15.096703 4.976054 37.703108 -26.068110 17.028380 -68.315290 36.586501 -44.346487 -15.755110 14.225675 -7.598906 -47.600738 43.506798 -42.790571 -14.678067 -6.089274 7.006160 -1.808860 -2.006820 0.534520 -0.315350 -34.758768 46.211713 14.162258 4.478300 -12.201179 -5.499973 -29.780824 -28.806906 -1.095177 1.590952 -5.865548 4.768690 -1.675330 -3.362210 -3.434130 
